<?xml version="1.0" encoding="UTF-8" standalone="no"?>
<!DOCTYPE svg PUBLIC "-//W3C//DTD SVG 1.1//EN" "http://www.w3.org/Graphics/SVG/1.1/DTD/svg11.dtd">
<svg version="1.1" xmlns="http://www.w3.org/2000/svg" xmlns:xlink="http://www.w3.org/1999/xlink" preserveAspectRatio="xMidYMid meet" viewBox="0 0 512 512" width="512" height="512"><defs><path d="M48.47 243.92C44.22 244.96 39.89 244.74 35.5 243.27C31.11 241.8 27.66 239.63 25.16 236.77C23.79 234.31 22.93 232.78 22.59 232.17C20.44 228.33 20.12 223.73 21.7 219.63C22 218.86 22.74 216.94 23.93 213.86L255.53 56.25L256 102.81L48.47 243.92Z" id="hG5aF0jvK"></path><path d="M462.06 243.92C466.31 244.96 470.63 244.74 475.02 243.27C479.41 241.8 482.86 239.63 485.37 236.77C486.74 234.31 487.6 232.78 487.94 232.17C490.08 228.33 490.41 223.73 488.82 219.63C488.53 218.86 487.78 216.94 486.59 213.86L255 56.25L254.53 102.81L462.06 243.92Z" id="ce6Nalk1A"></path><path d="M131.12 408.75L206.36 408.75L206.36 326.85C205.72 303.36 207.95 288.75 213.03 283.04C218.1 277.32 224.72 274.84 232.86 275.59L256 275.59C278.42 274.68 292.54 275.99 298.37 279.53C304.2 283.06 307.18 288.36 307.31 295.42L307.31 408.75L382.55 408.75L382.55 219.23L420.64 247.8L420.64 403.99C419.37 422.4 415.88 434.15 410.17 439.23C404.45 444.31 396.2 447.48 385.41 448.75L128.26 448.75C115.56 447.48 106.04 444.31 99.69 439.23C93.34 434.15 90.17 427.48 90.17 419.23L90.17 244.57L128.26 221.13L131.12 408.75Z" id="a4e6CbzGhw"></path></defs><g><g><use xlink:href="#hG5aF0jvK" opacity="1" fill="#ffffff" fill-opacity="1"></use></g><g><use xlink:href="#ce6Nalk1A" opacity="1" fill="#ffffff" fill-opacity="1"></use></g><g><use xlink:href="#a4e6CbzGhw" opacity="1" fill="#ffffff" fill-opacity="1"></use><g><use xlink:href="#a4e6CbzGhw" opacity="1" fill-opacity="0" stroke="#ffffff" stroke-width="1" stroke-opacity="1"></use></g></g></g></svg>