<?xml version="1.0" encoding="utf-8"?>
<!-- Generator: Adobe Illustrator 22.0.1, SVG Export Plug-In . SVG Version: 6.00 Build 0)  -->
<svg version="1.1" id="Ebene_1" xmlns="http://www.w3.org/2000/svg" xmlns:xlink="http://www.w3.org/1999/xlink" x="0px" y="0px"
	 viewBox="0 0 1296 1728" style="enable-background:new 0 0 1296 1728;" xml:space="preserve">
<style type="text/css">
	.st0{fill:#C0C0C0;}
	.st1{opacity:0.15;}
	.st2{fill:#FFFFFF;}
	.st3{fill:#808080;}
	.st4{fill:#B31C00;stroke:#000000;stroke-miterlimit:10;}
	.st5{fill:#0B0530;}
</style>
<g>
	<g id="XMLID_1_">
		<g>
			<path class="st0" d="M397.5,896.2C326,775.8,286.6,615,286.6,443.4V276.8c0-2.3,1.9-4.1,4.1-4.1h713c2.3,0,4.1,1.9,4.1,4.1v166.6
				c0,171.6-39.4,332.4-110.9,452.8c-68.2,114.7-156.9,177.9-249.7,177.9C554.4,1074.1,465.7,1010.9,397.5,896.2z"/>
			<path class="st0" d="M324.7,1555.7h648.4c19.2,0,34.8,15.6,34.8,34.8v47.6h-718v-47.6C289.9,1571.4,305.5,1555.7,324.7,1555.7z"
				/>
			<rect x="459" y="1361.1" class="st0" width="379.8" height="125"/>
			<path class="st0" d="M609.8,1141.2c12.4,1.7,24.9,2.6,37.5,2.6c13.7,0,27.3-1,40.7-3c0.8,56.5,22.8,110.1,59.8,150.8H550.4
				c8.6-9.5,16.5-19.8,23.5-30.7C597.1,1224.5,609.3,1183.3,609.8,1141.2z"/>
			<path class="st0" d="M1077.6,379.3v64.1c0,100.5-12.8,197.8-37.1,286.8c95.5-75.5,161.3-185.1,181-306.2
				c1.8-11.1-1.3-22.1-8.7-30.8c-7.5-8.8-18.4-13.9-30-13.9H1077.6z M397.5,896.2c68.2,114.7,156.9,177.9,249.7,177.9
				c92.9,0,181.5-63.2,249.7-177.9c71.5-120.4,110.9-281.2,110.9-452.8V276.8c0-2.3-1.9-4.1-4.1-4.1h-713c-2.3,0-4.1,1.9-4.1,4.1
				v166.6C286.6,615,326,775.8,397.5,896.2z M973.1,1555.7H324.7c-19.2,0-34.8,15.6-34.8,34.8v47.6h718v-47.6
				C1007.9,1571.4,992.3,1555.7,973.1,1555.7z M459,1486.1h379.8v-125H459V1486.1z M647.3,1143.8c-12.6,0-25.1-0.9-37.5-2.6
				c-0.5,42.1-12.7,83.3-35.9,119.6c-7,11-14.9,21.3-23.5,30.7h197.4c-37-40.7-59-94.2-59.8-150.8
				C674.6,1142.7,661,1143.8,647.3,1143.8z M254.1,730.2c-24.3-89-37.1-186.3-37.1-286.8v-64.1H111.8c-11.6,0-22.5,5.1-30,13.9
				c-7.4,8.7-10.5,19.6-8.7,30.8C92.8,545.1,158.5,654.8,254.1,730.2z M337.7,931.8c-17.5-29.4-33.2-61-47-94.3
				C138.9,755.1,32,605.1,4.3,435.2c-5.1-31.2,3.8-62.9,24.4-87.1c20.8-24.4,51.1-38.4,83.1-38.4h105.2v-32.9
				c0-40.7,33.1-73.8,73.8-73.8h713c40.7,0,73.8,33.1,73.8,73.8v32.9h105.1c32,0,62.3,14,83.1,38.4c20.5,24.2,29.4,55.9,24.4,87.1
				c-27.6,169.9-134.5,320-286.3,402.3c-13.9,33.3-29.6,64.9-47.1,94.3c-55,92.6-123.2,157-198.3,188.9
				c-8.6,78.9,43.6,153.8,122.7,171.6c0.1,0,0.3,0.1,0.4,0.1c15.4,3.6,26.8,17.4,26.8,33.9v159.8h64.6
				c57.6,0,104.5,46.9,104.5,104.5v82.5c0,19.2-15.6,34.8-34.8,34.8H255.1c-19.2,0-34.8-15.6-34.8-34.8v-82.5
				c0-57.6,46.9-104.5,104.5-104.5h64.6v-159.8c0-16.4,11.4-30.2,26.7-33.8c0.2,0,0.3-0.1,0.4-0.1c78.5-17.7,130.6-91.9,122.8-170.2
				C462.9,1090.7,393.5,1025.8,337.7,931.8z"/>
		</g>
		<g>
		</g>
	</g>
</g>
<g class="st1">
	<g id="XMLID_2_">
		<g>
			<path class="st2" d="M1214.3,392.2c7.4,8.7,10.5,19.6,8.7,30.8c-19.7,121.1-85.5,230.8-181,306.2c24.3-89,37.1-186.3,37.1-286.8
				v-64.1h105.1C1195.8,378.3,1206.8,383.4,1214.3,392.2z"/>
			<path class="st3" d="M1009.5,1589.6v47.6H663v-82.5h311.7C993.8,1554.7,1009.5,1570.4,1009.5,1589.6z"/>
			<rect x="663" y="1360.1" class="st3" width="177.4" height="125"/>
			<path class="st3" d="M663,1290.5V271.6V202h342.4c40.7,0,73.8,33.1,73.8,73.8v32.9h105.1c32,0,62.3,14,83.1,38.4
				c20.6,24.2,29.4,55.9,24.4,87.1c-27.6,169.9-134.5,320-286.3,402.3c-13.9,33.3-29.6,64.9-47.1,94.3
				c-55,92.6-123.2,157-198.3,188.9c-8.6,78.9,43.6,153.8,122.7,171.6c0.1,0,0.3,0.1,0.4,0.1c15.4,3.6,26.8,17.4,26.8,33.9v159.8
				h64.6c57.6,0,104.5,46.9,104.5,104.5v82.5c0,19.2-15.6,34.8-34.8,34.8l-381.3,3.1v-72.7h346.5v-47.6c0-19.2-15.6-34.8-34.8-34.8
				H663v-69.7h177.4v-125H663V1290.5z M1223,423c1.8-11.1-1.3-22.1-8.7-30.8c-7.5-8.8-18.4-13.9-30-13.9h-105.1v64.1
				c0,100.5-12.8,197.8-37.1,286.8C1137.5,653.7,1203.3,544.1,1223,423z"/>
		</g>
		<g>
		</g>
	</g>
</g>
<circle class="st4" cx="648.4" cy="626.7" r="235.8"/>
<g>
	<g>
		<path class="st5" d="M732.4,696.5c-5.2,18-12,38.4-16,53.2H565.6v-9.6c22-21.6,46-45.2,65.6-68c25.2-29.6,49.2-61.6,49.2-96.4
			c0-33.2-17.6-52.4-46.8-52.4c-27.6,0-44.8,21.6-55.2,37.2l-9.2-8.4l22.8-32.4c12.4-14,31.6-24,54.8-24c38,0,68,26,68,69.2
			c0,34-12.4,58-50.4,96.8c-17.2,18-42.4,42.4-59.6,58.8c2.4,0,72.8,0,76.4,0c21.6,0,27.6-2,41.2-27.2L732.4,696.5z"/>
	</g>
</g>
</svg>
