<?xml version="1.0" encoding="utf-8"?>
<!-- Generator: Adobe Illustrator 22.0.1, SVG Export Plug-In . SVG Version: 6.00 Build 0)  -->
<svg version="1.1" id="Ebene_1" xmlns="http://www.w3.org/2000/svg" xmlns:xlink="http://www.w3.org/1999/xlink" x="0px" y="0px"
	 viewBox="0 0 1296 1728" style="enable-background:new 0 0 1296 1728;" xml:space="preserve">
<style type="text/css">
	.st0{fill:#CD7F32;}
	.st1{opacity:0.15;}
	.st2{fill:#804F1F;}
	.st3{fill:#FFFFFF;}
	.st4{fill:#B31C00;stroke:#000000;stroke-miterlimit:10;}
	.st5{fill:#0B0530;}
</style>
<g>
	<g id="XMLID_1_">
		<g>
			<path class="st0" d="M1267.3,257.7c20.5,24.2,29.4,55.9,24.4,87.1c-27.6,169.9-134.5,320-286.3,402.3
				c-13.9,33.3-29.6,64.9-47.1,94.3c-55,92.6-123.2,157-198.3,188.9c-8.6,78.9,43.6,153.8,122.7,171.6c0.1,0,0.3,0.1,0.4,0.1
				c15.4,3.6,26.8,17.4,26.8,33.9v159.8h64.6c57.6,0,104.5,46.9,104.5,104.5v82.5c0,19.2-15.6,34.8-34.8,34.8H256.6
				c-19.2,0-34.8-15.6-34.8-34.8v-82.5c0-57.6,46.9-104.5,104.5-104.5h64.6v-159.8c0-16.4,11.4-30.2,26.7-33.8
				c0.2,0,0.3-0.1,0.5-0.1c78.5-17.7,130.6-91.9,122.8-170.2c-76.4-31.4-145.9-96.4-201.7-190.3c-17.5-29.4-33.2-61-47.1-94.3
				C140.4,664.7,33.4,514.6,5.8,344.8c-5.1-31.2,3.8-62.9,24.4-87.1c20.8-24.4,51.1-38.4,83.1-38.4h105.2v-32.9
				c0-40.7,33.1-73.8,73.8-73.8h713c40.7,0,73.8,33.1,73.8,73.8v32.9h105.1C1216.2,219.3,1246.5,233.3,1267.3,257.7z M1222.9,333.6
				c1.8-11.1-1.3-22.1-8.7-30.8c-7.5-8.8-18.4-13.9-30-13.9h-105.1V353c0,100.5-12.8,197.8-37.1,286.8
				C1137.4,564.3,1203.2,454.7,1222.9,333.6z M1009.4,1547.8v-47.6c0-19.2-15.6-34.8-34.8-34.8H326.2c-19.2,0-34.8,15.6-34.8,34.8
				v47.6H1009.4z M1009.4,353V186.4c0-2.3-1.9-4.1-4.2-4.1h-713c-2.3,0-4.1,1.9-4.1,4.1V353c0,171.6,39.4,332.4,110.9,452.8
				c68.2,114.7,156.9,177.9,249.7,177.9c92.9,0,181.5-63.2,249.7-177.9C970,685.4,1009.4,524.6,1009.4,353z M840.3,1395.7v-125
				H460.5v125H840.3z M551.8,1201.1h197.4c-37-40.7-59-94.2-59.8-150.8c-13.4,2-27,3-40.7,3c-12.6,0-25.1-0.9-37.5-2.6
				c-0.5,42.1-12.7,83.3-35.9,119.6C568.3,1181.3,560.5,1191.6,551.8,1201.1z M255.5,639.8c-24.3-89-37.1-186.3-37.1-286.8v-64.1
				H113.2c-11.6,0-22.5,5.1-30,13.9c-7.4,8.7-10.5,19.6-8.7,30.8C94.3,454.7,160,564.3,255.5,639.8z"/>
			<path class="st0" d="M1009.4,1500.2v47.6h-718v-47.6c0-19.2,15.6-34.8,34.8-34.8h648.4C993.8,1465.3,1009.4,1480.9,1009.4,1500.2
				z"/>
			<path class="st0" d="M1009.4,186.4V353c0,171.6-39.4,332.4-110.9,452.8c-68.2,114.7-156.9,177.9-249.7,177.9
				c-92.9,0-181.6-63.2-249.7-177.9C327.5,685.4,288.1,524.6,288.1,353V186.4c0-2.3,1.9-4.1,4.1-4.1h713
				C1007.5,182.2,1009.4,184.1,1009.4,186.4z"/>
			<rect x="460.5" y="1270.7" class="st0" width="379.8" height="125"/>
			<path class="st0" d="M749.3,1201.1H551.8c8.6-9.5,16.5-19.8,23.5-30.7c23.2-36.3,35.4-77.5,35.9-119.6
				c12.4,1.7,24.9,2.6,37.5,2.6c13.7,0,27.3-1,40.7-3C690.3,1106.8,712.3,1160.4,749.3,1201.1z"/>
		</g>
		<g>
		</g>
	</g>
</g>
<g class="st1">
	<g id="XMLID_2_">
		<g>
			<path class="st2" d="M662.1,182.8v-69.7h342.4c40.7,0,73.8,33.1,73.8,73.8v32.9h105.1c32,0,62.3,14,83.1,38.4
				c20.6,24.2,29.4,55.9,24.4,87.1c-27.6,169.9-134.5,320-286.3,402.3c-13.9,33.3-29.6,64.9-47.1,94.3
				c-55,92.6-123.2,157-198.3,188.9c-8.6,78.9,43.6,153.8,122.7,171.6c0.1,0,0.3,0.1,0.4,0.1c15.4,3.6,26.8,17.4,26.8,33.9v159.8
				h64.6c57.6,0,104.5,46.9,104.5,104.5v82.5c0,19.2-15.6,34.8-34.8,34.8l-381.3,3.1v-72.7h346.5v-47.6c0-19.2-15.6-34.8-34.8-34.8
				H662.1v-69.7h177.4v-125H662.1v-69.7V182.8z M1222.1,334.1c1.8-11.1-1.3-22.1-8.7-30.8c-7.5-8.8-18.4-13.9-30-13.9h-105.1v64.1
				c0,100.5-12.8,197.8-37.1,286.8C1136.7,564.9,1202.4,455.2,1222.1,334.1z"/>
			<path class="st3" d="M1213.4,303.3c7.4,8.7,10.5,19.6,8.7,30.8c-19.7,121.1-85.5,230.8-181,306.2c24.3-89,37.1-186.3,37.1-286.8
				v-64.1h105.1C1195,289.5,1205.9,294.5,1213.4,303.3z"/>
			<path class="st2" d="M1008.6,1500.7v47.6H662.1v-82.5h311.7C993,1465.9,1008.6,1481.5,1008.6,1500.7z"/>
			<rect x="662.1" y="1271.2" class="st2" width="177.4" height="125"/>
		</g>
		<g>
		</g>
	</g>
</g>
<circle class="st4" cx="649.9" cy="536.3" r="235.8"/>
<g>
	<g>
		<path class="st5" d="M575.9,453.3l18.8-25.2c11.6-12.8,30-22.8,51.6-22.8c36.4,0,60.4,22.8,60.4,53.2c0,12-5.2,21.6-12.4,29.6
			c-6.4,6.8-16.8,14-28.4,21.6c37.2,8,59.2,32.4,59.2,61.6c0,65.2-76.8,92.8-105.2,92.8c-18.8,0-36-8-41.6-14c-4.8-5.2-6-8.8-6-13.2
			c0.4-6.4,5.6-12.4,9.2-15.2c3.2-2.4,6.8-2.8,10.4,0.4c10.8,9.6,26.8,21.2,49.6,21.2c28.8,0,49.2-21.6,49.2-60.4
			c-0.4-36.8-27.2-51.2-52.8-51.2c-9.2,0-20.4,2.4-26.8,4.4l-2.8-12c35.6-11.6,64.4-27.6,64.4-57.2c0-23.6-15.2-37.2-38.4-37.2
			c-22.4,0-39.6,16.4-50,31.6L575.9,453.3z"/>
	</g>
</g>
</svg>
