<?xml version="1.0" encoding="utf-8"?>
<!-- Generator: Adobe Illustrator 22.0.1, SVG Export Plug-In . SVG Version: 6.00 Build 0)  -->
<svg version="1.1" id="Ebene_1" xmlns="http://www.w3.org/2000/svg" xmlns:xlink="http://www.w3.org/1999/xlink" x="0px" y="0px"
	 viewBox="0 0 1296 1728" style="enable-background:new 0 0 1296 1728;" xml:space="preserve">
<style type="text/css">
	.st0{fill:#FACF1C;}
	.st1{opacity:0.18;}
	.st2{fill:#808080;}
	.st3{fill:#FFFFFF;}
	.st4{fill:#B31C00;stroke:#000000;stroke-miterlimit:10;}
	.st5{fill:#0B0530;}
</style>
<g>
	<g id="XMLID_1_">
		<g>
			<path class="st0" d="M1267,292.2c20.6,24.2,29.4,55.9,24.4,87.1c-27.6,169.9-134.5,320-286.3,402.3
				c-13.9,33.3-29.6,64.9-47.1,94.3c-55,92.6-123.2,157-198.3,188.9c-8.6,78.9,43.6,153.8,122.7,171.6c0.1,0,0.3,0.1,0.4,0.1
				c15.4,3.6,26.8,17.4,26.8,33.9v159.8h64.6c57.6,0,104.5,46.9,104.5,104.5v82.5c0,19.2-15.6,34.8-34.8,34.8H256.3
				c-19.2,0-34.8-15.6-34.8-34.8v-82.5c0-57.6,46.9-104.5,104.5-104.5h64.6v-159.8c0-16.4,11.4-30.2,26.7-33.8
				c0.2,0,0.3-0.1,0.5-0.1c78.5-17.7,130.6-91.9,122.8-170.2c-76.4-31.4-145.9-96.4-201.7-190.3c-17.5-29.4-33.2-61-47.1-94.3
				C140.1,699.3,33.1,549.2,5.5,379.3c-5.1-31.2,3.8-62.9,24.4-87.1c20.8-24.4,51-38.4,83.1-38.4h105.2v-32.9
				c0-40.7,33.1-73.8,73.8-73.8h713c40.7,0,73.8,33.1,73.8,73.8v32.9h105.1C1216,253.8,1246.2,267.8,1267,292.2z M1222.6,368.1
				c1.8-11.1-1.3-22.1-8.7-30.8c-7.5-8.8-18.4-13.9-30-13.9h-105.1v64.1c0,100.5-12.8,197.8-37.1,286.8
				C1137.2,598.9,1202.9,489.2,1222.6,368.1z M1009.1,1582.3v-47.6c0-19.2-15.6-34.8-34.8-34.8H325.9c-19.2,0-34.8,15.6-34.8,34.8
				v47.6H1009.1z M1009.1,387.5V220.9c0-2.3-1.9-4.2-4.2-4.2h-713c-2.3,0-4.1,1.9-4.1,4.2v166.6c0,171.6,39.4,332.4,111,452.8
				c68.2,114.7,156.9,177.9,249.7,177.9c92.9,0,181.5-63.2,249.7-177.9C969.7,719.9,1009.1,559.1,1009.1,387.5z M840,1430.2v-125
				H460.2v125H840z M551.6,1235.6H749c-37-40.7-59-94.2-59.8-150.8c-13.4,2-27,3-40.7,3c-12.6,0-25.1-0.9-37.5-2.6
				c-0.5,42.1-12.7,83.3-35.9,119.5C568,1215.8,560.2,1226.1,551.6,1235.6z M255.2,674.3c-24.3-89-37.1-186.3-37.1-286.8v-64.1H113
				c-11.6,0-22.5,5.1-30,13.9c-7.4,8.7-10.5,19.6-8.7,30.8C94,489.2,159.7,598.9,255.2,674.3z"/>
			<path class="st0" d="M1009.1,1534.7v47.6h-718v-47.6c0-19.2,15.6-34.8,34.8-34.8h648.4C993.5,1499.9,1009.1,1515.5,1009.1,1534.7
				z"/>
			<path class="st0" d="M1009.1,220.9v166.6c0,171.6-39.4,332.4-110.9,452.8C830,955,741.3,1018.2,648.5,1018.2
				c-92.9,0-181.6-63.2-249.7-177.9c-71.6-120.4-111-281.2-111-452.8V220.9c0-2.3,1.9-4.2,4.1-4.2h713
				C1007.2,216.7,1009.1,218.6,1009.1,220.9z"/>
			<rect x="460.2" y="1305.2" class="st0" width="379.8" height="125"/>
			<path class="st0" d="M749,1235.6H551.6c8.6-9.5,16.5-19.8,23.5-30.7c23.2-36.3,35.4-77.5,35.9-119.5c12.4,1.7,24.9,2.6,37.5,2.6
				c13.7,0,27.3-1,40.7-3C690,1141.4,712,1194.9,749,1235.6z"/>
		</g>
		<g>
		</g>
	</g>
</g>
<g class="st1">
	<g id="XMLID_2_">
		<g>
			<path class="st2" d="M663.6,217.7v-69.7H1006c40.7,0,73.8,33.1,73.8,73.8v32.9h105.1c32,0,62.3,14,83.1,38.4
				c20.6,24.2,29.4,55.9,24.4,87.1c-27.6,169.9-134.5,320-286.3,402.3c-13.9,33.3-29.6,64.9-47.1,94.3
				c-55,92.6-123.2,157-198.3,188.9c-8.6,78.9,43.6,153.8,122.7,171.6c0.1,0,0.3,0.1,0.4,0.1c15.4,3.6,26.8,17.4,26.8,33.9v159.8
				h64.6c57.6,0,104.5,46.9,104.5,104.5v82.5c0,19.2-15.6,34.8-34.8,34.8l-381.3,3.1v-72.7h346.5v-47.6c0-19.2-15.6-34.8-34.8-34.8
				H663.6v-69.7H841v-125H663.6v-69.7V217.7z M1223.6,369.1c1.8-11.1-1.3-22.1-8.7-30.8c-7.5-8.8-18.4-13.9-30-13.9h-105.1v64.1
				c0,100.5-12.8,197.8-37.1,286.8C1138.2,599.9,1203.9,490.2,1223.6,369.1z"/>
			<path class="st3" d="M1214.9,338.3c7.4,8.7,10.5,19.6,8.7,30.8c-19.7,121.1-85.5,230.8-181,306.2c24.3-89,37.1-186.3,37.1-286.8
				v-64.1h105.1C1196.5,324.4,1207.4,329.5,1214.9,338.3z"/>
			<path class="st2" d="M1010.1,1535.7v47.6H663.6v-82.5h311.7C994.5,1500.9,1010.1,1516.5,1010.1,1535.7z"/>
			<rect x="663.6" y="1306.2" class="st2" width="177.4" height="125"/>
		</g>
		<g>
		</g>
	</g>
</g>
<circle class="st4" cx="649.6" cy="570.9" r="235.8"/>
<g>
	<g>
		<path class="st5" d="M590,693.8v-11.2c44.4-2.8,46.8-4.8,46.8-34.8V494.3c0-20.4-2.8-21.2-20.4-22.8l-19.6-2v-10
			c26.4-4.4,52.8-10.8,73.2-19.6v208c0,30.4,2.4,32,47.2,34.8v11.2H590z"/>
	</g>
</g>
</svg>
